<svg width="30" height="26" viewBox="0 0 30 26" fill="none" xmlns="http://www.w3.org/2000/svg">
<path d="M2 9.84616L1.30213 10.5624L0.567056 9.84616L1.30213 9.12993L2 9.84616ZM30 23C30 23.5523 29.5523 24 29 24C28.4477 24 28 23.5523 28 23L30 23ZM9.73964 18.7835L1.30213 10.5624L2.69786 9.12993L11.1354 17.3511L9.73964 18.7835ZM1.30213 9.12993L9.73963 0.908773L11.1354 2.34123L2.69786 10.5624L1.30213 9.12993ZM2 8.84616L23 8.84615L23 10.8462L2 10.8462L2 8.84616ZM30 15.8462L30 23L28 23L28 15.8462L30 15.8462ZM23 8.84615C26.866 8.84615 30 11.9802 30 15.8462L28 15.8462C28 13.0847 25.7614 10.8462 23 10.8462L23 8.84615Z" fill="#8E8E8E"/>
</svg>
