<svg width="29" height="29" viewBox="0 0 29 29" fill="none" xmlns="http://www.w3.org/2000/svg">
<path d="M14.5 2.86207V1" stroke="white" stroke-width="1.4" stroke-linecap="round" stroke-linejoin="round"/>
<path d="M13.1034 1L15.8965 1" stroke="white" stroke-width="1.4" stroke-linecap="round" stroke-linejoin="round"/>
<path d="M14.5 26.1379L14.5 28" stroke="white" stroke-width="1.4" stroke-linecap="round" stroke-linejoin="round"/>
<path d="M15.8965 28L13.1034 28" stroke="white" stroke-width="1.4" stroke-linecap="round" stroke-linejoin="round"/>
<path d="M26.1379 14.5L28 14.5" stroke="white" stroke-width="1.4" stroke-linecap="round" stroke-linejoin="round"/>
<path d="M28 13.1036L28 15.8967" stroke="white" stroke-width="1.4" stroke-linecap="round" stroke-linejoin="round"/>
<path d="M2.86207 14.5L1 14.5" stroke="white" stroke-width="1.4" stroke-linecap="round" stroke-linejoin="round"/>
<path d="M1 15.8964L1 13.1033" stroke="white" stroke-width="1.4" stroke-linecap="round" stroke-linejoin="round"/>
<path d="M8.68128 4.42095L7.75024 2.80835" stroke="white" stroke-width="1.4" stroke-linecap="round" stroke-linejoin="round"/>
<path d="M6.54082 3.50666L8.95972 2.11011" stroke="white" stroke-width="1.4" stroke-linecap="round" stroke-linejoin="round"/>
<path d="M20.3187 24.5791L21.2498 26.1917" stroke="white" stroke-width="1.4" stroke-linecap="round" stroke-linejoin="round"/>
<path d="M22.4592 25.4933L20.0403 26.8899" stroke="white" stroke-width="1.4" stroke-linecap="round" stroke-linejoin="round"/>
<path d="M24.5786 8.68128L26.1912 7.75024" stroke="white" stroke-width="1.4" stroke-linecap="round" stroke-linejoin="round"/>
<path d="M25.493 6.54082L26.8895 8.95972" stroke="white" stroke-width="1.4" stroke-linecap="round" stroke-linejoin="round"/>
<path d="M4.42156 20.3187L2.80896 21.2498" stroke="white" stroke-width="1.4" stroke-linecap="round" stroke-linejoin="round"/>
<path d="M3.50727 22.4592L2.11072 20.0403" stroke="white" stroke-width="1.4" stroke-linecap="round" stroke-linejoin="round"/>
<path d="M4.42144 8.68079L2.80884 7.74976" stroke="white" stroke-width="1.4" stroke-linecap="round" stroke-linejoin="round"/>
<path d="M2.11053 8.95918L3.50708 6.54028" stroke="white" stroke-width="1.4" stroke-linecap="round" stroke-linejoin="round"/>
<path d="M24.5786 20.3192L26.1912 21.2502" stroke="white" stroke-width="1.4" stroke-linecap="round" stroke-linejoin="round"/>
<path d="M26.8893 20.0408L25.4928 22.4597" stroke="white" stroke-width="1.4" stroke-linecap="round" stroke-linejoin="round"/>
<path d="M20.3187 4.42144L21.2498 2.80884" stroke="white" stroke-width="1.4" stroke-linecap="round" stroke-linejoin="round"/>
<path d="M20.0403 2.11053L22.4592 3.50708" stroke="white" stroke-width="1.4" stroke-linecap="round" stroke-linejoin="round"/>
<path d="M8.68128 24.5786L7.75024 26.1912" stroke="white" stroke-width="1.4" stroke-linecap="round" stroke-linejoin="round"/>
<path d="M8.95967 26.8895L6.54077 25.4929" stroke="white" stroke-width="1.4" stroke-linecap="round" stroke-linejoin="round"/>
<circle cx="14.5" cy="14.5" r="10.9379" stroke="white" stroke-width="1.4"/>
<circle cx="14.0344" cy="14.0344" r="1.16207" stroke="white" stroke-width="1.4"/>
<circle cx="14.0344" cy="7.51734" r="1.16207" stroke="white" stroke-width="1.4"/>
<circle cx="14.9655" cy="20.5516" r="2.0931" stroke="white" stroke-width="1.4"/>
<circle cx="8.85591" cy="11.241" r="0.833412" transform="rotate(-60 8.85591 11.241)" stroke="white" stroke-width="1.4"/>
<ellipse cx="20.8465" cy="17.0695" rx="1.67506" ry="1.67506" transform="rotate(-60 20.8465 17.0695)" stroke="white" stroke-width="1.4"/>
<mask id="path-31-inside-1" fill="white">
<ellipse cx="8.856" cy="17.7584" rx="1.25942" ry="1.25942" transform="rotate(-120 8.856 17.7584)"/>
</mask>
<path d="M8.92629 17.8801C8.85905 17.9189 8.77307 17.8959 8.73425 17.8287L11.1591 16.4287C10.4247 15.1567 8.79827 14.7209 7.52629 15.4552L8.92629 17.8801ZM8.73425 17.8287C8.69543 17.7614 8.71847 17.6754 8.78571 17.6366L10.1857 20.0615C11.4577 19.3271 11.8935 17.7006 11.1591 16.4287L8.73425 17.8287ZM8.78571 17.6366C8.85295 17.5978 8.93893 17.6208 8.97775 17.6881L6.55287 19.0881C7.28725 20.3601 8.91373 20.7959 10.1857 20.0615L8.78571 17.6366ZM8.97775 17.6881C9.01657 17.7553 8.99353 17.8413 8.92629 17.8801L7.52629 15.4552C6.25431 16.1896 5.8185 17.8161 6.55287 19.0881L8.97775 17.6881Z" fill="white" mask="url(#path-31-inside-1)"/>
<path d="M19.3302 9.83183C20.1086 9.38238 21.104 9.6491 21.5535 10.4276C22.0029 11.206 21.7362 12.2014 20.9577 12.6509C20.1793 13.1003 19.1839 12.8336 18.7344 12.0551C18.285 11.2767 18.5517 10.2813 19.3302 9.83183Z" stroke="white" stroke-width="1.4"/>
</svg>
