<svg width="12" height="13" viewBox="0 0 12 13" fill="none" xmlns="http://www.w3.org/2000/svg">
<path d="M7.09091 1.9697C7.09091 1.65626 6.9664 1.35566 6.74476 1.13403C6.52313 0.912391 6.22253 0.787879 5.90909 0.787879C5.59565 0.787879 5.29505 0.912391 5.07342 1.13403C4.85179 1.35566 4.72727 1.65626 4.72727 1.9697H3.93939C3.93939 1.4473 4.14691 0.946301 4.5163 0.576911C4.88569 0.207521 5.38669 0 5.90909 0C6.43149 0 6.93249 0.207521 7.30188 0.576911C7.67127 0.946301 7.87879 1.4473 7.87879 1.9697H11.4242C11.5287 1.9697 11.6289 2.0112 11.7028 2.08508C11.7767 2.15896 11.8182 2.25916 11.8182 2.36364C11.8182 2.46812 11.7767 2.56832 11.7028 2.64219C11.6289 2.71607 11.5287 2.75758 11.4242 2.75758H10.9878L9.96667 11.6055C9.92221 11.9895 9.73814 12.3437 9.44949 12.6009C9.16083 12.858 8.78773 13.0001 8.40115 13H3.41703C3.03046 13.0001 2.65735 12.858 2.36869 12.6009C2.08004 12.3437 1.89597 11.9895 1.85151 11.6055L0.829636 2.75758H0.393939C0.301737 2.75761 0.212446 2.7253 0.141614 2.66627C0.0707828 2.60724 0.0228993 2.52524 0.00630295 2.43455L0 2.36364C0 2.25916 0.0415043 2.15896 0.115382 2.08508C0.18926 2.0112 0.28946 1.9697 0.393939 1.9697H7.09091ZM10.1936 2.75758H1.62382L2.63388 11.5148C2.65611 11.7069 2.7482 11.8841 2.89261 12.0127C3.03703 12.1413 3.22368 12.2122 3.41703 12.2121H8.40115C8.59437 12.2121 8.78083 12.141 8.92507 12.0124C9.06932 11.8839 9.16129 11.7068 9.18351 11.5148L10.1936 2.75758ZM4.72727 4.72727C4.9203 4.72727 5.08182 4.84939 5.11491 5.01012L5.12121 5.07236V9.89812C5.12121 10.088 4.94473 10.2424 4.72727 10.2424C4.53424 10.2424 4.37273 10.1203 4.33964 9.95958L4.33333 9.89733V5.07315C4.33333 4.88248 4.50982 4.72806 4.72727 4.72806V4.72727ZM7.09091 4.72727C7.28394 4.72727 7.44545 4.84939 7.47854 5.01012L7.48485 5.07236V9.89812C7.48485 10.088 7.30836 10.2424 7.09091 10.2424C6.89788 10.2424 6.73636 10.1203 6.70327 9.95958L6.69697 9.89733V5.07315C6.69697 4.88248 6.87345 4.72806 7.09091 4.72806V4.72727Z" fill="white"/>
</svg>
