<svg width="14" height="14" viewBox="0 0 14 14" fill="none" xmlns="http://www.w3.org/2000/svg">
<path d="M9.8052 2.69966L11.3003 4.19403L9.8052 2.69966ZM10.7666 1.38318L6.72399 5.42581C6.51511 5.6344 6.37266 5.90015 6.31458 6.18958L5.94116 8.05877L7.81036 7.68465C8.09977 7.62677 8.36519 7.48489 8.57413 7.27594L12.6168 3.23331C12.7382 3.11183 12.8346 2.96761 12.9004 2.80889C12.9661 2.65016 12.9999 2.48005 12.9999 2.30824C12.9999 2.13644 12.9661 1.96632 12.9004 1.8076C12.8346 1.64888 12.7382 1.50466 12.6168 1.38318C12.4953 1.26169 12.3511 1.16533 12.1923 1.09958C12.0336 1.03384 11.8635 1 11.6917 1C11.5199 1 11.3498 1.03384 11.191 1.09958C11.0323 1.16533 10.8881 1.26169 10.7666 1.38318V1.38318Z" stroke="white" stroke-linecap="round" stroke-linejoin="round"/>
<path d="M11.5883 9.47052V11.5882C11.5883 11.9626 11.4396 12.3217 11.1748 12.5865C10.9101 12.8512 10.551 13 10.1766 13H2.41178C2.03735 13 1.67826 12.8512 1.4135 12.5865C1.14874 12.3217 1 11.9626 1 11.5882V3.8234C1 3.44897 1.14874 3.08988 1.4135 2.82512C1.67826 2.56036 2.03735 2.41162 2.41178 2.41162H4.52945" stroke="white" stroke-linecap="round" stroke-linejoin="round"/>
</svg>
